<?xml version="1.0" standalone="no"?><!DOCTYPE svg PUBLIC "-//W3C//DTD SVG 1.1//EN" "http://www.w3.org/Graphics/SVG/1.1/DTD/svg11.dtd"><svg t="1548565990177" class="icon" style="" viewBox="0 0 1024 1024" version="1.1" xmlns="http://www.w3.org/2000/svg" p-id="2664" xmlns:xlink="http://www.w3.org/1999/xlink" width="200" height="200"><defs><style type="text/css"></style></defs><path d="M96 64h768a32 32 0 0 1 32 32v768a32 32 0 0 1-32 32H96a32 32 0 0 1-32-32V96a32 32 0 0 1 32-32z m32 64v704h704V128H128z m0 192h704v64H128V320z m0 256h704v64H128v-64z m512-384h128v64h-128V192z m0 256h128v64h-128v-64z m0 256h128v64h-128v-64z" fill="#1296db" p-id="2665"></path></svg>