<?xml version="1.0" standalone="no"?><!DOCTYPE svg PUBLIC "-//W3C//DTD SVG 1.1//EN" "http://www.w3.org/Graphics/SVG/1.1/DTD/svg11.dtd"><svg t="1548566059064" class="icon" style="" viewBox="0 0 1147 1024" version="1.1" xmlns="http://www.w3.org/2000/svg" p-id="2896" xmlns:xlink="http://www.w3.org/1999/xlink" width="224.0234375" height="200"><defs><style type="text/css"></style></defs><path d="M982.528 574.976h-385.536c-6.144 0-11.264-5.12-11.264-11.264V290.816c0-6.144-5.12-11.264-11.264-11.264-6.144 0-11.264 5.12-11.264 11.264v272.896c0 6.144-5.12 11.264-11.264 11.264H166.4c-77.312 0-98.816 31.232-98.816 98.816v243.2c0 65.024 14.336 98.816 98.816 98.816h816.128c67.072 0 98.816-22.016 98.816-98.816v-243.2c0-67.072-30.72-98.816-98.816-98.816z m77.312 342.016c0 52.736-20.48 77.312-77.312 77.312H166.4c-55.808 0-77.312-22.016-77.312-77.312v-243.2c0-49.152 17.408-77.312 77.312-77.312h816.128c52.224 0 77.312 27.136 77.312 77.312v243.2z" p-id="2897" fill="#1afa29"></path><path d="M753.664 733.696m-18.432 0a18.432 18.432 0 1 0 36.864 0 18.432 18.432 0 1 0-36.864 0Z" p-id="2898" fill="#1afa29"></path><path d="M861.184 717.824c-5.632-3.072-12.8-3.072-18.432 0s-9.216 9.216-9.216 15.872 3.584 12.8 9.216 15.872c5.632 3.072 12.8 3.072 18.432 0s9.216-9.216 9.216-15.872-3.584-12.8-9.216-15.872z" p-id="2899" fill="#1afa29"></path><path d="M950.272 733.696m-18.432 0a18.432 18.432 0 1 0 36.864 0 18.432 18.432 0 1 0-36.864 0Z" p-id="2900" fill="#1afa29"></path><path d="M455.168 733.696m-18.432 0a18.432 18.432 0 1 0 36.864 0 18.432 18.432 0 1 0-36.864 0Z" p-id="2901" fill="#1afa29"></path><path d="M562.688 717.824c-5.632-3.072-12.8-3.072-18.432 0s-9.216 9.216-9.216 15.872 3.584 12.8 9.216 15.872c5.632 3.072 12.8 3.072 18.432 0s9.216-9.216 9.216-15.872-3.584-12.8-9.216-15.872z" p-id="2902" fill="#1afa29"></path><path d="M651.776 733.696m-18.432 0a18.432 18.432 0 1 0 36.864 0 18.432 18.432 0 1 0-36.864 0Z" p-id="2903" fill="#1afa29"></path><path d="M753.664 860.672m-18.432 0a18.432 18.432 0 1 0 36.864 0 18.432 18.432 0 1 0-36.864 0Z" p-id="2904" fill="#1afa29"></path><path d="M861.184 844.8c-5.632-3.072-12.8-3.072-18.432 0s-9.216 9.216-9.216 15.872 3.584 12.8 9.216 15.872c5.632 3.072 12.8 3.072 18.432 0s9.216-9.216 9.216-15.872-3.584-12.288-9.216-15.872z" p-id="2905" fill="#1afa29"></path><path d="M950.272 860.672m-18.432 0a18.432 18.432 0 1 0 36.864 0 18.432 18.432 0 1 0-36.864 0Z" p-id="2906" fill="#1afa29"></path><path d="M455.168 860.672m-18.432 0a18.432 18.432 0 1 0 36.864 0 18.432 18.432 0 1 0-36.864 0Z" p-id="2907" fill="#1afa29"></path><path d="M562.688 844.8c-5.632-3.072-12.8-3.072-18.432 0s-9.216 9.216-9.216 15.872 3.584 12.8 9.216 15.872c5.632 3.072 12.8 3.072 18.432 0s9.216-9.216 9.216-15.872-3.584-12.288-9.216-15.872z" p-id="2908" fill="#1afa29"></path><path d="M651.776 860.672m-18.432 0a18.432 18.432 0 1 0 36.864 0 18.432 18.432 0 1 0-36.864 0Z" p-id="2909" fill="#1afa29"></path><path d="M574.464 122.88c-116.736 0-212.48 91.136-218.624 206.336-0.512 4.608 3.584 8.704 8.192 8.704 4.608 0 8.192-3.584 8.192-8.192 6.144-106.496 94.208-190.464 202.24-190.464s196.096 84.48 202.24 190.464c0.512 4.608 4.096 8.192 8.192 8.192 4.608 0 8.704-4.096 8.192-8.704C786.944 214.528 691.2 122.88 574.464 122.88z" p-id="2910" fill="#1afa29"></path><path d="M258.048 338.432c5.12 0 9.216-4.096 9.216-8.704C271.872 163.84 407.552 30.72 574.464 30.72s302.592 132.608 307.2 298.496c0 5.12 4.096 8.704 9.216 8.704s9.216-4.096 9.216-9.216c-5.12-175.616-148.992-316.416-325.632-316.416S253.952 153.6 248.832 328.704c0 5.12 4.096 9.728 9.216 9.728z" p-id="2911" fill="#1afa29"></path></svg>